<svg width="266" height="138" viewBox="0 0 266 138" fill="none" xmlns="http://www.w3.org/2000/svg">
<rect width="266" height="138" fill="white"/>
<path d="M74 66H174" stroke="black" stroke-width="2.00384" stroke-miterlimit="10.433" stroke-linecap="square"/>
<rect x="96" y="38" width="55" height="55" fill="white" stroke="black" stroke-width="4"/>
<path d="M113.896 77H118.509V67.9872H127.874V77H132.476V55.1818H127.874V64.1839H118.509V55.1818H113.896V77Z" fill="black"/>
<path d="M41.375 77.2983C46.1903 77.2983 48.9602 73.218 48.9602 66.0909C48.9602 59.017 46.1477 54.8835 41.375 54.8835C36.6023 54.8835 33.7898 59.017 33.7898 66.0909C33.7898 73.218 36.5597 77.2983 41.375 77.2983ZM41.375 74.9545C38.2003 74.9545 36.3466 71.7692 36.3466 66.0909C36.3466 60.4233 38.2216 57.1847 41.375 57.1847C44.5284 57.1847 46.4034 60.4233 46.4034 66.0909C46.4034 71.7692 44.5497 74.9545 41.375 74.9545Z" fill="black"/>
<line x1="28.5" y1="50" x2="28.5" y2="82" stroke="black" stroke-width="3"/>
<path d="M51 50L57.5 66L51 82" stroke="black" stroke-width="3"/>
<path d="M198.301 60.6364V68.2642C198.301 74.0916 201.359 76.8935 206.312 77.2557V83.9886H208.827V77.245C214.771 76.7443 216.881 72.8984 216.881 68.6903C216.881 65.4943 216.071 62.4261 215.219 60.6364H212.534C213.557 63.0653 214.281 66.0909 214.366 68.6903C214.366 71.3537 212.673 74.2514 208.827 74.848V60.6364H206.312V74.9013C203.298 74.5604 200.815 72.6747 200.815 68.2642V60.6364H198.301Z" fill="black"/>
<line x1="192.5" y1="50" x2="192.5" y2="82" stroke="black" stroke-width="3"/>
<path d="M219 50L225.5 66L219 82" stroke="black" stroke-width="3"/>
</svg>
