<svg width="262" height="120" viewBox="0 0 262 120" fill="none" xmlns="http://www.w3.org/2000/svg">
<circle cx="20" cy="87" r="20" transform="rotate(-180 20 87)" fill="white"/>
<path d="M19.2929 101.707C19.6834 102.098 20.3166 102.098 20.7071 101.707L27.0711 95.3431C27.4616 94.9526 27.4616 94.3195 27.0711 93.9289C26.6805 93.5384 26.0474 93.5384 25.6569 93.9289L20 99.5858L14.3431 93.9289C13.9526 93.5384 13.3195 93.5384 12.9289 93.9289C12.5384 94.3195 12.5384 94.9526 12.9289 95.3431L19.2929 101.707ZM19 71L19 101L21 101L21 71L19 71Z" fill="#001219"/>
<circle cx="20" cy="28" r="20" fill="white"/>
<path d="M20.7071 13.2929C20.3166 12.9024 19.6834 12.9024 19.2929 13.2929L12.9289 19.6569C12.5384 20.0474 12.5384 20.6805 12.9289 21.0711C13.3195 21.4616 13.9526 21.4616 14.3431 21.0711L20 15.4142L25.6569 21.0711C26.0474 21.4616 26.6805 21.4616 27.0711 21.0711C27.4616 20.6805 27.4616 20.0474 27.0711 19.6569L20.7071 13.2929ZM21 44L21 14L19 14L19 44L21 44Z" fill="#001219"/>
<line x1="41" y1="120" x2="41" y2="4.0433e-08" stroke="#001219" stroke-width="2"/>
<line x1="42" y1="119" x2="262" y2="119" stroke="#001219" stroke-width="2"/>
</svg>
